<?xml version="1.0" encoding="UTF-8"?>
<svg xmlns="http://www.w3.org/2000/svg" width="160" height="59" viewBox="0 0 160 59" fill="none">
  <mask id="mask0_3407_1031" style="mask-type:luminance" maskUnits="userSpaceOnUse" x="-1" y="8" width="19" height="24">
    <path d="M-0.000732422 8.86475H17.5772V31.5261H-0.000732422V8.86475Z" fill="#FFFFFE"></path>
  </mask>
  <g mask="url(#mask0_3407_1031)">
    <path fill-rule="evenodd" clip-rule="evenodd" d="M17.5773 10.4643L17.4956 17.6512H17.1186C17.1186 17.6512 14.5357 15.1254 13.0775 13.7636C12.3075 13.0441 11.8552 12.4698 11.2952 12.6703C10.3034 13.0246 9.11759 14.4036 8.46354 15.3731V29.4457L10.4124 31.1518V31.5261H0.181419V31.1518L1.7629 29.4457V13.3884L-0.0280762 12.4412V12.0665L7.12351 8.86475L8.29056 13.5585C10.454 11.3888 11.6416 10.0728 14.0295 10.0905C15.0761 10.0986 16.4883 10.1726 17.5773 10.4643Z" fill="#F2F2F2"></path>
  </g>
  <path fill-rule="evenodd" clip-rule="evenodd" d="M31.5497 27.4419V19.2841L28.5562 20.3243C26.1954 21.2818 24.9727 23.0301 24.9727 25.4438C24.9727 27.9827 26.364 29.5222 28.2189 29.5222C29.5257 29.5222 30.4957 28.8563 31.5497 27.4419ZM39.8876 31.3957V31.7699H32.8988L31.7179 28.4821C30.1161 30.8962 27.8817 32.2698 25.1413 32.2698C21.8528 32.2698 18.3115 30.8962 18.3115 26.3174C18.3115 22.8632 21.3046 21.0736 24.6777 20.2413C27.1226 19.6584 29.6103 19.0346 31.5497 18.4517V14.914C31.5497 12.4168 30.6643 11.168 28.6826 11.168C28.2189 11.168 27.713 11.2093 27.0803 11.3767L20.5386 17.8965H20.1591L20.0925 10.7643C23.4761 10.3415 26.7013 10.2104 29.7789 10.2104C35.7232 10.2104 38.295 12.8323 38.295 16.2871V29.6057L39.8876 31.3957Z" fill="#F2F2F2"></path>
  <path fill-rule="evenodd" clip-rule="evenodd" d="M128.924 27.271V19.0941L125.951 20.1367C123.606 21.0965 122.391 22.8488 122.391 25.2682C122.391 27.813 123.773 29.3562 125.616 29.3562C126.914 29.3562 127.877 28.6887 128.924 27.271ZM137.206 31.234V31.6091H130.264L129.092 28.3136C127.5 30.7334 125.281 32.1101 122.559 32.1101C119.292 32.1101 115.774 30.7334 115.774 26.1439C115.774 22.6815 118.748 20.8878 122.098 20.0535C124.527 19.4692 126.998 18.8441 128.924 18.2598V14.7138C128.924 12.2108 128.045 10.9591 126.077 10.9591C125.616 10.9591 125.113 11.0005 124.485 11.1682L117.987 17.7033H117.61L117.543 10.5544C120.905 10.1307 124.108 9.99927 127.165 9.99927C133.07 9.99927 135.625 12.6273 135.625 16.0901V29.4398L137.206 31.234Z" fill="#F2F2F2"></path>
  <path fill-rule="evenodd" clip-rule="evenodd" d="M52.7914 31.2339V31.609H42.8858V31.2339L44.5092 29.5239V5.33698L42.6763 4.38625V4.01115L51.2099 0V29.5239L52.7914 31.2339Z" fill="#F2F2F2"></path>
  <path fill-rule="evenodd" clip-rule="evenodd" d="M66.1398 31.2339V31.609H56.2342V31.2339L57.8576 29.5239V5.33698L56.0247 4.38625V4.01115L64.5583 0V29.5239L66.1398 31.2339Z" fill="#F2F2F2"></path>
  <path fill-rule="evenodd" clip-rule="evenodd" d="M90.5911 10.2104V10.5874L88.5016 14.0672L80.5233 33.6474C78.34 38.8883 76.865 38.7256 74.3879 38.7256C73.6319 38.7256 72.9601 38.5163 72.1625 38.265V34.114L79.1797 34.109L69.0607 12.4326L67.9363 10.5874V10.2104H77.8265V10.5874L76.2408 12.3481L82.455 26.1423L87.4934 13.8999L84.6575 10.5874V10.2104H90.5911Z" fill="#F2F2F2"></path>
  <path fill-rule="evenodd" clip-rule="evenodd" d="M159.999 10.5471V10.9239L157.923 14.4017L149.995 33.9709C147.824 39.2088 146.359 39.0462 143.897 39.0462C143.146 39.0462 142.478 38.8371 141.685 38.5859V34.4372L148.659 34.4322L138.603 12.7681L137.486 10.9239V10.5471H147.314V10.9239L145.738 12.6836L151.914 26.47L156.921 14.2345L154.103 10.9239V10.5471H159.999Z" fill="#F2F2F2"></path>
  <path fill-rule="evenodd" clip-rule="evenodd" d="M105.626 27.6017V13.0187C104.833 12.1807 103.915 11.8039 102.663 11.8039C100.159 11.8039 98.0312 14.0664 98.0312 20.8137C98.0312 27.2245 99.909 29.4034 102.413 29.4034C103.832 29.4034 104.833 28.775 105.626 27.6017ZM113.92 31.3731V31.7499H107.003L105.876 28.6074C104.582 30.7027 102.58 32.2532 99.4915 32.2532C95.1101 32.2532 90.9792 29.1102 90.9792 21.5673C90.9792 13.6896 95.7777 10.0018 100.577 10.0018C102.788 10.0018 104.457 10.6722 105.626 11.8039V5.36077L103.841 4.4058V4.02903L112.302 0V29.571L113.92 31.3731Z" fill="#F2F2F2"></path>
  <path fill-rule="evenodd" clip-rule="evenodd" d="M40.4903 55.0099H41.2194C42.3714 55.0099 43.2177 54.2258 43.2177 53.2147C43.2177 52.1314 42.3517 51.4505 41.2194 51.4505H40.4903C40.382 51.4505 40.3131 51.5222 40.3131 51.6362V54.8242C40.3131 54.9382 40.382 55.0099 40.4903 55.0099ZM39.3481 57.8373V50.8516C39.3481 50.6659 39.4466 50.5627 39.6234 50.5627H41.1992C42.9026 50.5627 44.2028 51.6156 44.2028 53.2147C44.2028 54.7421 42.9223 55.8976 41.1992 55.8976H40.4903C40.382 55.8976 40.3131 55.9699 40.3131 56.0834V57.8373C40.3131 58.0023 40.2245 58.0952 40.0665 58.0952H39.5943C39.4363 58.0952 39.3481 58.0023 39.3481 57.8373Z" fill="#F2F2F2"></path>
  <path fill-rule="evenodd" clip-rule="evenodd" d="M50.6761 55.4127H53.3489C53.4525 55.4127 53.5043 55.3401 53.4629 55.2477L52.1161 51.7183C52.0747 51.5949 51.9711 51.5949 51.9296 51.7183L50.5617 55.2477C50.5203 55.3401 50.5725 55.4127 50.6761 55.4127ZM48.5416 57.796L51.3495 50.7588C51.4013 50.635 51.4945 50.5627 51.6292 50.5627H52.4165C52.5512 50.5627 52.6445 50.635 52.6967 50.7588L55.5042 57.796C55.5767 57.9817 55.4938 58.0952 55.3074 58.0952H54.7687C54.6232 58.0952 54.52 58.0234 54.4678 57.8889L53.9394 56.4857C53.9088 56.4135 53.8565 56.3722 53.7741 56.3722H50.2509C50.168 56.3722 50.1162 56.4135 50.0856 56.4857L49.5465 57.8889C49.4951 58.0338 49.3911 58.0952 49.246 58.0952H48.7384C48.5726 58.0952 48.4691 57.9714 48.5416 57.796Z" fill="#F2F2F2"></path>
  <path fill-rule="evenodd" clip-rule="evenodd" d="M61.5727 54.5711H62.1979C63.4263 54.5711 64.2255 53.9735 64.2255 53.0359C64.2255 52.0881 63.4263 51.4493 62.1871 51.4493H61.5727C61.46 51.4493 61.3884 51.5209 61.3884 51.6347V54.3861C61.3884 54.499 61.46 54.5711 61.5727 54.5711ZM60.3848 50.8512C60.3848 50.6658 60.4872 50.5627 60.671 50.5627H62.1979C63.9486 50.5627 65.2394 51.5621 65.2394 53.0359C65.2394 54.3444 64.0002 55.3031 62.8835 55.3649L62.8328 55.3752C62.7299 55.3958 62.6889 55.5087 62.8016 55.6122L65.0038 57.7758C65.1677 57.9407 65.1067 58.0952 64.8809 58.0952L64.1743 58.0849C64.0514 58.0849 63.9486 58.0442 63.8569 57.951L61.6137 55.6637C61.5005 55.54 61.3884 55.5916 61.3884 55.7564V57.8273C61.3884 57.9922 61.2962 58.0849 61.1319 58.0849H60.6408C60.4765 58.0849 60.3848 57.9922 60.3848 57.8273V50.8512Z" fill="#F2F2F2"></path>
  <path fill-rule="evenodd" clip-rule="evenodd" d="M70.094 51.2545V50.8207C70.094 50.6556 70.1805 50.5627 70.3343 50.5627H75.2477C75.401 50.5627 75.488 50.6556 75.488 50.8207V51.2545C75.488 51.4195 75.401 51.5119 75.2477 51.5119H73.4976C73.3438 51.5119 73.2573 51.6052 73.2573 51.7703V57.8373C73.2573 58.0023 73.1707 58.0952 73.0165 58.0952H72.517C72.3628 58.0952 72.2767 58.0023 72.2767 57.8373V51.7703C72.2767 51.6052 72.1902 51.5119 72.0359 51.5119H70.3343C70.1805 51.5119 70.094 51.4195 70.094 51.2545Z" fill="#F2F2F2"></path>
  <path fill-rule="evenodd" clip-rule="evenodd" d="M80.8821 57.8373V50.9032C80.8821 50.6865 81.0067 50.5627 81.2255 50.5627H81.3297C81.5069 50.5627 81.6324 50.6246 81.7471 50.7588L86.2184 56.331C86.3227 56.4651 86.4477 56.4238 86.4477 56.2484V50.8207C86.4477 50.6556 86.5415 50.5627 86.7083 50.5627H87.0939C87.2606 50.5627 87.3549 50.6556 87.3549 50.8207V57.7547C87.3549 57.9714 87.2294 58.0952 87.0105 58.0952H86.7916C86.6145 58.0952 86.479 58.0338 86.3644 57.8992L82.0285 52.5854C81.9242 52.4513 81.7987 52.4822 81.7987 52.6576V57.8373C81.7987 58.0023 81.7054 58.0952 81.5382 58.0952H81.1422C80.9754 58.0952 80.8821 58.0023 80.8821 57.8373Z" fill="#F2F2F2"></path>
  <path fill-rule="evenodd" clip-rule="evenodd" d="M93.8276 57.8063V50.8516C93.8276 50.6659 93.9321 50.5627 94.1202 50.5627H97.8294C97.997 50.5627 98.0906 50.6556 98.0906 50.8207V51.1818C98.0906 51.3468 97.997 51.4402 97.8294 51.4402H95.0296C94.9146 51.4402 94.841 51.5119 94.841 51.6259V53.7203C94.841 53.8338 94.9146 53.906 95.0296 53.906H97.6205C97.7876 53.906 97.8821 53.9988 97.8821 54.1639V54.5353C97.8821 54.7004 97.7876 54.7932 97.6205 54.7932H95.0296C94.9146 54.7932 94.841 54.8655 94.841 54.979V57.0222C94.841 57.1357 94.9146 57.2079 95.0296 57.2079H97.8821C98.0488 57.2079 98.1428 57.3008 98.1428 57.4659V57.8373C98.1428 58.0023 98.0488 58.0952 97.8821 58.0952H94.1202C93.9321 58.0952 93.8276 57.992 93.8276 57.8063Z" fill="#F2F2F2"></path>
  <path fill-rule="evenodd" clip-rule="evenodd" d="M104.724 54.5711H105.35C106.579 54.5711 107.378 53.9735 107.378 53.0359C107.378 52.0881 106.579 51.4493 105.339 51.4493H104.724C104.612 51.4493 104.541 51.5209 104.541 51.6347V54.3861C104.541 54.499 104.612 54.5711 104.724 54.5711ZM103.537 50.8512C103.537 50.6658 103.639 50.5627 103.823 50.5627H105.35C107.101 50.5627 108.391 51.5621 108.391 53.0359C108.391 54.3444 107.152 55.3031 106.036 55.3649L105.985 55.3752C105.882 55.3958 105.841 55.5087 105.954 55.6122L108.156 57.7758C108.32 57.9407 108.258 58.0952 108.033 58.0952L107.326 58.0849C107.203 58.0849 107.101 58.0442 107.009 57.951L104.765 55.6637C104.653 55.54 104.541 55.5916 104.541 55.7564V57.8273C104.541 57.9922 104.448 58.0849 104.284 58.0849H103.792C103.629 58.0849 103.537 57.9922 103.537 57.8273V50.8512Z" fill="#F2F2F2"></path>
  <path fill-rule="evenodd" clip-rule="evenodd" d="M112.937 55.8756H113.42C113.561 55.8756 113.651 55.9459 113.702 56.0764C114.034 56.8496 114.728 57.2211 115.544 57.2211C116.45 57.2211 117.104 56.7391 117.104 56.0965C117.104 54.2986 113.047 55.2229 113.047 52.4912C113.047 51.3464 114.044 50.5627 115.463 50.5627C116.772 50.5627 117.658 51.3159 117.98 52.4008C118.031 52.5715 117.929 52.6819 117.758 52.6819H117.295C117.155 52.6819 117.064 52.6112 117.013 52.4811C116.742 51.8385 116.208 51.4363 115.463 51.4363C114.618 51.4363 114.034 51.8585 114.034 52.4912C114.034 54.3488 118.101 53.4853 118.101 56.0764C118.101 57.3015 116.933 58.0952 115.544 58.0952C114.165 58.0952 113.138 57.3718 112.725 56.1567C112.665 55.986 112.755 55.8756 112.937 55.8756Z" fill="#F2F2F2"></path>
</svg>
